  0
SECTION
  2
HEADER
  9
$ACADVER
  1
AC1015
  9
$ACADMAINTVER
 70
     6
  9
$DWGCODEPAGE
  3
ANSI_1252
  9
$INSBASE
 10
0.0
 20
0.0
 30
0.0
  9
$EXTMIN
 10
-17.415
 20
-5.5057686737
 30
0.0
  9
$EXTMAX
 10
17.415
 20
19.0460326896
 30
0.0
  9
$LIMMIN
 10
0.0
 20
0.0
  9
$LIMMAX
 10
420.0
 20
297.0
  9
$ORTHOMODE
 70
     0
  9
$REGENMODE
 70
     1
  9
$FILLMODE
 70
     1
  9
$QTEXTMODE
 70
     0
  9
$MIRRTEXT
 70
     1
  9
$LTSCALE
 40
1.0
  9
$ATTMODE
 70
     1
  9
$TEXTSIZE
 40
3.175
  9
$TRACEWID
 40
1.0
  9
$TEXTSTYLE
  7
Standard
  9
$CLAYER
  8
0
  9
$CELTYPE
  6
ByLayer
  9
$CECOLOR
 62
   256
  9
$CELTSCALE
 40
1.0
  9
$DISPSILH
 70
     0
  9
$DIMSCALE
 40
1.0
  9
$DIMASZ
 40
3.302
  9
$DIMEXO
 40
1.27
  9
$DIMDLI
 40
3.75
  9
$DIMRND
 40
0.0
  9
$DIMDLE
 40
0.0
  9
$DIMEXE
 40
3.175
  9
$DIMTP
 40
0.0
  9
$DIMTM
 40
0.0
  9
$DIMTXT
 40
3.175
  9
$DIMCEN
 40
2.5
  9
$DIMTSZ
 40
0.0
  9
$DIMTOL
 70
     0
  9
$DIMLIM
 70
     0
  9
$DIMTIH
 70
     1
  9
$DIMTOH
 70
     1
  9
$DIMSE1
 70
     0
  9
$DIMSE2
 70
     0
  9
$DIMTAD
 70
     0
  9
$DIMZIN
 70
     0
  9
$DIMBLK
  1

  9
$DIMASO
 70
     1
  9
$DIMSHO
 70
     1
  9
$DIMPOST
  1

  9
$DIMAPOST
  1

  9
$DIMALT
 70
     0
  9
$DIMALTD
 70
     3
  9
$DIMALTF
 40
0.0393700787
  9
$DIMLFAC
 40
1.0
  9
$DIMTOFL
 70
     1
  9
$DIMTVP
 40
0.0
  9
$DIMTIX
 70
     0
  9
$DIMSOXD
 70
     0
  9
$DIMSAH
 70
     0
  9
$DIMBLK1
  1

  9
$DIMBLK2
  1

  9
$DIMSTYLE
  2
ISO-25
  9
$DIMCLRD
 70
     0
  9
$DIMCLRE
 70
     0
  9
$DIMCLRT
 70
     0
  9
$DIMTFAC
 40
1.0
  9
$DIMGAP
 40
1.524
  9
$DIMJUST
 70
     0
  9
$DIMSD1
 70
     0
  9
$DIMSD2
 70
     0
  9
$DIMTOLJ
 70
     0
  9
$DIMTZIN
 70
     0
  9
$DIMALTZ
 70
     0
  9
$DIMALTTZ
 70
     0
  9
$DIMUPT
 70
     0
  9
$DIMDEC
 70
     2
  9
$DIMTDEC
 70
     2
  9
$DIMALTU
 70
     2
  9
$DIMALTTD
 70
     3
  9
$DIMTXSTY
  7
Standard
  9
$DIMAUNIT
 70
     0
  9
$DIMADEC
 70
     2
  9
$DIMALTRND
 40
0.0
  9
$DIMAZIN
 70
     0
  9
$DIMDSEP
 70
    44
  9
$DIMATFIT
 70
     3
  9
$DIMFRAC
 70
     0
  9
$DIMLDRBLK
  1

  9
$DIMLUNIT
 70
     2
  9
$DIMLWD
 70
    -2
  9
$DIMLWE
 70
    -2
  9
$DIMTMOVE
 70
     0
  9
$LUNITS
 70
     2
  9
$LUPREC
 70
     2
  9
$SKETCHINC
 40
1.0
  9
$FILLETRAD
 40
10.0
  9
$AUNITS
 70
     0
  9
$AUPREC
 70
     2
  9
$MENU
  1
.
  9
$ELEVATION
 40
0.0
  9
$PELEVATION
 40
0.0
  9
$THICKNESS
 40
0.0
  9
$LIMCHECK
 70
     0
  9
$CHAMFERA
 40
10.0
  9
$CHAMFERB
 40
10.0
  9
$CHAMFERC
 40
20.0
  9
$CHAMFERD
 40
0.0
  9
$SKPOLY
 70
     0
  9
$TDCREATE
 40
2456711.586627315
  9
$TDUCREATE
 40
2456712.003293981
  9
$TDUPDATE
 40
2456711.586665764
  9
$TDUUPDATE
 40
2456712.00333243
  9
$TDINDWG
 40
0.0000000116
  9
$TDUSRTIMER
 40
0.0000000116
  9
$USRTIMER
 70
     1
  9
$ANGBASE
 50
0.0
  9
$ANGDIR
 70
     0
  9
$PDMODE
 70
     0
  9
$PDSIZE
 40
-1.0
  9
$PLINEWID
 40
0.0
  9
$SPLFRAME
 70
     0
  9
$SPLINETYPE
 70
     6
  9
$SPLINESEGS
 70
     8
  9
$HANDSEED
  5
8D
  9
$SURFTAB1
 70
     6
  9
$SURFTAB2
 70
     6
  9
$SURFTYPE
 70
     6
  9
$SURFU
 70
     6
  9
$SURFV
 70
     6
  9
$UCSBASE
  2

  9
$UCSNAME
  2

  9
$UCSORG
 10
0.0
 20
0.0
 30
0.0
  9
$UCSXDIR
 10
1.0
 20
0.0
 30
0.0
  9
$UCSYDIR
 10
0.0
 20
1.0
 30
0.0
  9
$UCSORTHOREF
  2

  9
$UCSORTHOVIEW
 70
     0
  9
$UCSORGTOP
 10
0.0
 20
0.0
 30
0.0
  9
$UCSORGBOTTOM
 10
0.0
 20
0.0
 30
0.0
  9
$UCSORGLEFT
 10
0.0
 20
0.0
 30
0.0
  9
$UCSORGRIGHT
 10
0.0
 20
0.0
 30
0.0
  9
$UCSORGFRONT
 10
0.0
 20
0.0
 30
0.0
  9
$UCSORGBACK
 10
0.0
 20
0.0
 30
0.0
  9
$PUCSBASE
  2

  9
$PUCSNAME
  2

  9
$PUCSORG
 10
0.0
 20
0.0
 30
0.0
  9
$PUCSXDIR
 10
1.0
 20
0.0
 30
0.0
  9
$PUCSYDIR
 10
0.0
 20
1.0
 30
0.0
  9
$PUCSORTHOREF
  2

  9
$PUCSORTHOVIEW
 70
     0
  9
$PUCSORGTOP
 10
0.0
 20
0.0
 30
0.0
  9
$PUCSORGBOTTOM
 10
0.0
 20
0.0
 30
0.0
  9
$PUCSORGLEFT
 10
0.0
 20
0.0
 30
0.0
  9
$PUCSORGRIGHT
 10
0.0
 20
0.0
 30
0.0
  9
$PUCSORGFRONT
 10
0.0
 20
0.0
 30
0.0
  9
$PUCSORGBACK
 10
0.0
 20
0.0
 30
0.0
  9
$USERI1
 70
     0
  9
$USERI2
 70
     0
  9
$USERI3
 70
     0
  9
$USERI4
 70
     0
  9
$USERI5
 70
     0
  9
$USERR1
 40
0.0
  9
$USERR2
 40
0.0
  9
$USERR3
 40
0.0
  9
$USERR4
 40
0.0
  9
$USERR5
 40
0.0
  9
$WORLDVIEW
 70
     1
  9
$SHADEDGE
 70
     3
  9
$SHADEDIF
 70
    70
  9
$TILEMODE
 70
     1
  9
$MAXACTVP
 70
    64
  9
$PINSBASE
 10
0.0
 20
0.0
 30
0.0
  9
$PLIMCHECK
 70
     0
  9
$PEXTMIN
 10
1.0000000000E+20
 20
1.0000000000E+20
 30
1.0000000000E+20
  9
$PEXTMAX
 10
-1.0000000000E+20
 20
-1.0000000000E+20
 30
-1.0000000000E+20
  9
$PLIMMIN
 10
0.0
 20
0.0
  9
$PLIMMAX
 10
420.0
 20
297.0
  9
$UNITMODE
 70
     0
  9
$VISRETAIN
 70
     1
  9
$PLINEGEN
 70
     0
  9
$PSLTSCALE
 70
     1
  9
$TREEDEPTH
 70
  3020
  9
$CMLSTYLE
  2
Standard
  9
$CMLJUST
 70
     0
  9
$CMLSCALE
 40
20.0
  9
$PROXYGRAPHICS
 70
     1
  9
$MEASUREMENT
 70
     1
  9
$CELWEIGHT
370
    -1
  9
$ENDCAPS
280
     0
  9
$JOINSTYLE
280
     0
  9
$LWDISPLAY
290
     1
  9
$INSUNITS
 70
     4
  9
$HYPERLINKBASE
  1

  9
$STYLESHEET
  1

  9
$XEDIT
290
     1
  9
$CEPSNTYPE
380
     0
  9
$PSTYLEMODE
290
     1
  9
$FINGERPRINTGUID
  2
{94A4E0A7-BEEA-4FDC-8129-133E633B4780}
  9
$VERSIONGUID
  2
{FAEB1C32-E019-11D5-929B-00C0DF256EC4}
  9
$EXTNAMES
290
     1
  9
$PSVPSCALE
 40
0.0
  9
$OLESTARTUP
290
     0
  0
ENDSEC
  0
SECTION
  2
CLASSES
  0
CLASS
  1
ACDBDICTIONARYWDFLT
  2
AcDbDictionaryWithDefault
  3
ObjectDBX Classes
 90
        0
280
     0
281
     0
  0
CLASS
  1
VISUALSTYLE
  2
AcDbVisualStyle
  3
ObjectDBX Classes
 90
     4095
280
     0
281
     0
  0
CLASS
  1
MATERIAL
  2
AcDbMaterial
  3
ObjectDBX Classes
 90
     1153
280
     0
281
     0
  0
CLASS
  1
ACDBPLACEHOLDER
  2
AcDbPlaceHolder
  3
ObjectDBX Classes
 90
        0
280
     0
281
     0
  0
CLASS
  1
LAYOUT
  2
AcDbLayout
  3
ObjectDBX Classes
 90
        0
280
     0
281
     0
  0
ENDSEC
  0
SECTION
  2
TABLES
  0
TABLE
  2
VPORT
  5
8
330
0
100
AcDbSymbolTable
 70
     1
  0
VPORT
  5
29
330
8
100
AcDbSymbolTableRecord
100
AcDbViewportTableRecord
  2
*Active
 70
     0
 10
0.0
 20
0.0
 11
1.0
 21
1.0
 12
0.0
 22
6.7701320079
 13
0.0
 23
0.0
 14
10.0
 24
10.0
 15
10.0
 25
10.0
 16
0.0
 26
0.0
 36
1.0
 17
0.0
 27
0.0
 37
0.0
 40
25.0428373906
 41
1.4186331783
 42
50.0
 43
0.0
 44
0.0
 50
0.0
 51
0.0
 71
     0
 72
   100
 73
     1
 74
     3
 75
     0
 76
     0
 77
     0
 78
     0
281
     0
 65
     1
110
0.0
120
0.0
130
0.0
111
1.0
121
0.0
131
0.0
112
0.0
122
1.0
132
0.0
 79
     0
146
0.0
  0
ENDTAB
  0
TABLE
  2
LTYPE
  5
5
330
0
100
AcDbSymbolTable
 70
     6
  0
LTYPE
  5
14
330
5
100
AcDbSymbolTableRecord
100
AcDbLinetypeTableRecord
  2
ByBlock
 70
     0
  3

 72
    65
 73
     0
 40
0.0
  0
LTYPE
  5
15
330
5
100
AcDbSymbolTableRecord
100
AcDbLinetypeTableRecord
  2
ByLayer
 70
     0
  3

 72
    65
 73
     0
 40
0.0
  0
LTYPE
  5
16
330
5
100
AcDbSymbolTableRecord
100
AcDbLinetypeTableRecord
  2
Continuous
 70
     0
  3
Solid line
 72
    65
 73
     0
 40
0.0
  0
LTYPE
  5
3F
330
5
100
AcDbSymbolTableRecord
100
AcDbLinetypeTableRecord
  2
HIDDEN
 70
     0
  3
Hidden __ __ __ __ __ __ __ __ __ __ __ __ __ __
 72
    65
 73
     2
 40
1.905
 49
1.27
 74
     0
 49
-0.635
 74
     0
  0
LTYPE
  5
40
330
5
100
AcDbSymbolTableRecord
100
AcDbLinetypeTableRecord
  2
PHANTOM
 70
     0
  3
Phantom ______  __  __  ______  __  __  ______
 72
    65
 73
     6
 40
12.7
 49
6.35
 74
     0
 49
-1.27
 74
     0
 49
1.27
 74
     0
 49
-1.27
 74
     0
 49
1.27
 74
     0
 49
-1.27
 74
     0
  0
LTYPE
  5
41
330
5
100
AcDbSymbolTableRecord
100
AcDbLinetypeTableRecord
  2
CENTER
 70
     0
  3
Center ____ _ ____ _ ____ _ ____ _ ____ _ ____
 72
    65
 73
     4
 40
10.16
 49
6.35
 74
     0
 49
-1.27
 74
     0
 49
1.27
 74
     0
 49
-1.27
 74
     0
  0
LTYPE
  5
42
330
5
100
AcDbSymbolTableRecord
100
AcDbLinetypeTableRecord
  2
CENTERX2
 70
     0
  3
Center (2x) ________  __  ________  __  _____
 72
    65
 73
     4
 40
20.32
 49
12.7
 74
     0
 49
-2.54
 74
     0
 49
2.54
 74
     0
 49
-2.54
 74
     0
  0
LTYPE
  5
43
330
5
100
AcDbSymbolTableRecord
100
AcDbLinetypeTableRecord
  2
DOT2
 70
     0
  3
Dot (.5x) ........................................
 72
    65
 73
     2
 40
0.635
 49
0.0
 74
     0
 49
-0.635
 74
     0
  0
ENDTAB
  0
TABLE
  2
LAYER
  5
2
330
0
100
AcDbSymbolTable
 70
     1
  0
LAYER
  5
10
330
2
100
AcDbSymbolTableRecord
100
AcDbLayerTableRecord
  2
0
 70
     0
 62
     7
  6
Continuous
370
    -3
390
F
  0
ENDTAB
  0
TABLE
  2
STYLE
  5
3
330
0
100
AcDbSymbolTable
 70
     1
  0
STYLE
  5
11
330
3
100
AcDbSymbolTableRecord
100
AcDbTextStyleTableRecord
  2
Standard
 70
     0
 40
0.0
 41
1.0
 50
0.0
 71
     0
 42
3.175
  3
txt
  4

  0
ENDTAB
  0
TABLE
  2
VIEW
  5
6
330
0
100
AcDbSymbolTable
 70
     0
  0
ENDTAB
  0
TABLE
  2
UCS
  5
7
330
0
100
AcDbSymbolTable
 70
     0
  0
ENDTAB
  0
TABLE
  2
APPID
  5
9
330
0
100
AcDbSymbolTable
 70
     1
  0
APPID
  5
12
330
9
100
AcDbSymbolTableRecord
100
AcDbRegAppTableRecord
  2
ACAD
 70
     0
  0
ENDTAB
  0
TABLE
  2
DIMSTYLE
  5
A
330
0
100
AcDbSymbolTable
 70
     1
100
AcDbDimStyleTable
  0
DIMSTYLE
105
27
330
A
100
AcDbSymbolTableRecord
100
AcDbDimStyleTableRecord
  2
ISO-25
 70
     0
 41
2.5
 42
0.625
 43
3.75
 44
1.25
 73
     0
 74
     0
 77
     1
 78
     8
140
2.5
141
2.5
143
0.0393700787
147
0.625
171
     3
172
     1
178
     0
271
     2
272
     2
274
     3
278
    44
283
     0
284
     8
340
11
  0
ENDTAB
  0
TABLE
  2
BLOCK_RECORD
  5
1
330
0
100
AcDbSymbolTable
 70
     1
  0
BLOCK_RECORD
  5
1F
330
1
100
AcDbSymbolTableRecord
100
AcDbBlockTableRecord
  2
*Model_Space
340
22
  0
BLOCK_RECORD
  5
1B
330
1
100
AcDbSymbolTableRecord
100
AcDbBlockTableRecord
  2
*Paper_Space
340
1E
  0
BLOCK_RECORD
  5
23
330
1
100
AcDbSymbolTableRecord
100
AcDbBlockTableRecord
  2
*Paper_Space0
340
26
  0
ENDTAB
  0
ENDSEC
  0
SECTION
  2
BLOCKS
  0
BLOCK
  5
20
330
1F
100
AcDbEntity
  8
0
100
AcDbBlockBegin
  2
*Model_Space
 70
     0
 10
0.0
 20
0.0
 30
0.0
  3
*Model_Space
  1

  0
ENDBLK
  5
21
330
1F
100
AcDbEntity
  8
0
100
AcDbBlockEnd
  0
BLOCK
  5
1C
330
1B
100
AcDbEntity
 67
     1
  8
0
100
AcDbBlockBegin
  2
*Paper_Space
 70
     0
 10
0.0
 20
0.0
 30
0.0
  3
*Paper_Space
  1

  0
ENDBLK
  5
1D
330
1B
100
AcDbEntity
 67
     1
  8
0
100
AcDbBlockEnd
  0
BLOCK
  5
24
330
23
100
AcDbEntity
  8
0
100
AcDbBlockBegin
  2
*Paper_Space0
 70
     0
 10
0.0
 20
0.0
 30
0.0
  3
*Paper_Space0
  1

  0
ENDBLK
  5
25
330
23
100
AcDbEntity
  8
0
100
AcDbBlockEnd
  0
ENDSEC
  0
SECTION
  2
ENTITIES
  0
LWPOLYLINE
  5
50
330
1F
100
AcDbEntity
  8
0
  6
Continuous
 62
     7
370
    15
100
AcDbPolyline
 90
      100
 70
   128
 43
0.0
 10
13.865213329
 20
15.9949281846
 10
14.274484926
 20
15.7983937942
 10
14.7055476987
 20
15.5715450867
 10
15.10656788
 20
15.3381830346
 10
15.4767262088
 20
15.0987843831
 10
15.8152664727
 20
14.8538382098
 10
16.1214970535
 20
14.6038449259
 10
16.3947923395
 20
14.3493152532
 10
16.6345940042
 20
14.0907691813
 10
16.8404121465
 20
13.828734905
 10
17.0118262917
 20
13.5637477453
 10
17.1484862507
 20
13.2963490559
 10
17.2501128348
 20
13.0270851168
 10
17.3164984268
 20
12.7565060189
 10
17.3475074048
 20
12.4851645398
 10
17.3430764192
 20
12.2136150146
 10
17.3032145222
 20
11.9424122034
 10
17.2280031494
 20
11.672110158
 10
17.1175959533
 20
11.40326109
 10
16.9722184895
 20
11.1364142427
 10
16.7921677559
 20
10.8721147688
 10
16.5778115858
 20
10.610902617
 10
16.3295878964
 20
10.3533114289
 10
16.0480037947
 20
10.0998674483
 10
15.7336345408
 20
9.851088447
 10
15.3871223731
 20
9.607482666
 10
15.0091751961
 20
9.3695477782
 10
14.6005651341
 20
9.1377698707
 10
14.1621269542
 20
8.9126224526
 10
13.6947563604
 20
8.6945654871
 10
13.1994081641
 20
8.4840444523
 10
12.6770943332
 20
8.2814894303
 10
12.128881925
 20
8.0873142297
 10
11.555890906
 20
7.9019155391
 10
10.9592918641
 20
7.7256721175
 10
10.3403036168
 20
7.55894402
 10
9.7001907217
 20
7.4020718627
 10
9.0402608929
 20
7.2553761264
 10
8.361862329
 20
7.119156502
 10
7.6663809595
 20
6.9936912784
 10
6.955237613
 20
6.879236774
 10
6.2298851146
 20
6.7760268126
 10
5.4918053179
 20
6.6842722464
 10
4.7425060776
 20
6.6041605246
 10
3.9835181691
 20
6.5358553109
 10
3.2163921613
 20
6.4794961489
 10
2.4426952486
 20
6.4351981773
 10
1.6640080494
 20
6.4030518941
 10
0.8819213772
 20
6.3831229724
 10
0.0980329901
 20
6.375452126
 10
-0.6860556727
 20
6.3800550257
 10
-1.4687427632
 20
6.3969222683
 10
-2.2484292963
 20
6.4260193949
 10
-3.0235224172
 20
6.4672869616
 10
-3.7924386551
 20
6.5206406614
 10
-4.5536071581
 20
6.5859714955
 10
-5.3054729026
 20
6.6631459969
 10
-6.0464998699
 20
6.7520065024
 10
-6.7751741845
 20
6.8523714752
 10
-7.4900072065
 20
6.9640358754
 10
-8.1895385729
 20
7.0867715789
 10
-8.8723391812
 20
7.2203278438
 10
-9.537014109
 20
7.3644318223
 10
-10.1822054635
 20
7.5187891182
 10
-10.8065951556
 20
7.6830843884
 10
-11.408907593
 20
7.8569819871
 10
-11.987912286
 20
8.0401266514
 10
-12.5424263611
 20
8.2321442273
 10
-13.0713169778
 20
8.4326424339
 10
-13.5735036429
 20
8.6412116649
 10
-14.0479604178
 20
8.8574258251
 10
-14.4937180145
 20
9.0808432016
 10
-14.9098657758
 20
9.3110073654
 10
-15.2955535357
 20
9.5474481043
 10
-15.6499933561
 20
9.7896823835
 10
-15.9724611369
 20
10.0372153321
 10
-16.2622980948
 20
10.2895412546
 10
-16.5189121095
 20
10.5461446635
 10
-16.7417789333
 20
10.8065013328
 10
-16.930443262
 20
11.0700793687
 10
-17.0845196653
 20
11.3363402965
 10
-17.2036933738
 20
11.6047401602
 10
-17.2877209225
 20
11.8747306344
 10
-17.336430648
 20
12.1457601439
 10
-17.3497230391
 20
12.4172749911
 10
-17.3275709401
 20
12.6887204866
 10
-17.2700196066
 20
12.9595420828
 10
-17.1771866126
 20
13.2291865068
 10
-17.0492616105
 20
13.4971028905
 10
-16.886505944
 20
13.7627438959
 10
-16.6892521134
 20
14.0255668338
 10
-16.457903097
 20
14.285034772
 10
-16.1929315276
 20
14.5406176323
 10
-15.894878727
 20
14.7917932736
 10
-15.5643535999
 20
15.0380485585
 10
-15.2020313903
 20
15.2788804015
 10
-14.8086523016
 20
15.5137967969
 10
-14.3850199848
 20
15.7423178241
 10
-13.9319998964
 20
15.9639766276
 10
-13.865213329
 20
15.9949281846
  0
LWPOLYLINE
  5
51
330
1F
100
AcDbEntity
  8
0
  6
Continuous
 62
     7
370
    15
100
AcDbPolyline
 90
      128
 70
   128
 43
0.0
 10
10.2530483272
 20
17.5754908938
 10
10.7475542438
 20
17.3955644845
 10
11.2157590943
 20
17.2073898789
 10
11.6565171027
 20
17.0114275719
 10
12.0687496606
 20
16.808157116
 10
12.4514479656
 20
16.5980759481
 10
12.803675491
 20
16.3816981721
 10
13.1245702768
 20
16.1595533005
 10
13.41334704
 20
15.9321849592
 10
13.6692990952
 20
15.7001495565
 10
13.8918000849
 20
15.4640149221
 10
14.080305512
 20
15.2243589168
 10
14.234354072
 20
14.9817680191
 10
14.3535687824
 20
14.7368358896
 10
14.4376579047
 20
14.4901619182
 10
14.4864156587
 20
14.2423497575
 10
14.4997227261
 20
13.9940058454
 10
14.4775465423
 20
13.745737921
 10
14.4199413761
 20
13.4981535376
 10
14.3270481969
 20
13.2518585756
 10
14.19909433
 20
13.0074557601
 10
14.0363928999
 20
12.7655431856
 10
13.8393420643
 20
12.5267128529
 10
13.6084240396
 20
12.2915492198
 10
13.3442039208
 20
12.0606277711
 10
13.047328299
 20
11.8345136102
 10
12.7185236785
 20
11.6137600764
 10
12.3585946992
 20
11.3989073906
 10
11.9684221678
 20
11.1904813333
 10
11.5489609017
 20
10.9889919581
 10
11.1012373931
 20
10.7949323431
 10
10.6263472963
 20
10.6087773848
 10
10.125452747
 20
10.4309826355
 10
9.5997795181
 20
10.2619831889
 10
9.0506140201
 20
10.1021926148
 10
8.4793001529
 20
9.9520019475
 10
7.8872360174
 20
9.8117787289
 10
7.2758704936
 20
9.6818661085
 10
6.6466996956
 20
9.5625820045
 10
6.0012633096
 20
9.4542183249
 10
5.3411408266
 20
9.3570402538
 10
4.667947677
 20
9.2712856023
 10
3.9833312772
 20
9.1971642264
 10
3.2889669983
 20
9.1348575134
 10
2.586554066
 20
9.0845179384
 10
1.8778114025
 20
9.0462686908
 10
1.1644734198
 20
9.0202033728
 10
0.4482857755
 20
9.0063857706
 10
-0.2689988992
 20
9.0048496983
 10
-0.9856252885
 20
9.0155989149
 10
-1.6998396876
 20
9.0386071152
 10
-2.4098942941
 20
9.0738179943
 10
-3.1140514855
 20
9.1211453853
 10
-3.810588071
 20
9.1804734702
 10
-4.497799509
 20
9.2516570631
 10
-5.1740040779
 20
9.3345219659
 10
-5.8375469917
 20
9.4288653943
 10
-6.4868044499
 20
9.5344564741
 10
-7.1201876106
 20
9.6510368062
 10
-7.7361464791
 20
9.7783210991
 10
-8.3331737008
 20
9.9159978667
 10
-8.90980825
 20
10.063730191
 10
-9.4646390054
 20
10.2211565461
 10
-9.9963082032
 20
10.3878916834
 10
-10.5035147597
 20
10.563527574
 10
-10.9850174555
 20
10.7476344076
 10
-11.4396379728
 20
10.9397616439
 10
-11.866263779
 20
11.1394391152
 10
-12.2638508493
 20
11.3461781774
 10
-12.6314262215
 20
11.5594729053
 10
-12.9680903771
 20
11.7788013311
 10
-13.2730194424
 20
12.0036267212
 10
-13.545467205
 20
12.2333988903
 10
-13.7847669395
 20
12.4675555474
 10
-13.9903330394
 20
12.7055236719
 10
-14.1616624499
 20
12.946720916
 10
-14.2983358994
 20
13.1905570295
 10
-14.4000189249
 20
13.4364353046
 10
-14.466462691
 20
13.683754036
 10
-14.4975045988
 20
13.9319079933
 10
-14.4930686835
 20
14.1802899022
 10
-14.4531658004
 20
14.4282919305
 10
-14.3778935987
 20
14.6753071757
 10
-14.2674362821
 20
14.9207311502
 10
-14.1220641581
 20
15.1639632603
 10
-13.9421329766
 20
15.4044082762
 10
-13.7280830594
 20
15.6414777888
 10
-13.4804382225
 20
15.8745916493
 10
-13.1998044944
 20
16.1031793889
 10
-12.8868686327
 20
16.3266816151
 10
-12.5423964441
 20
16.5445513805
 10
-12.1672309095
 20
16.7562555214
 10
-11.7622901221
 20
16.9612759622
 10
-11.3285650397
 20
17.1591109835
 10
-10.8671170604
 20
17.3492764499
 10
-10.3790754245
 20
17.5313069946
 10
-9.8656344519
 20
17.7047571584
 10
-9.3280506185
 20
17.8692024796
 10
-8.7676394822
 20
18.0242405331
 10
-8.1857724629
 20
18.1694919146
 10
-7.5838734866
 20
18.3046011698
 10
-6.9634155011
 20
18.4292376636
 10
-6.3259168709
 20
18.5430963897
 10
-5.6729376622
 20
18.6458987167
 10
-5.0060758244
 20
18.73739307
 10
-4.3269632801
 20
18.8173555477
 10
-3.6372619316
 20
18.8855904681
 10
-2.9386595937
 20
18.941930849
 10
-2.2328658633
 20
18.986238816
 10
-1.521607936
 20
19.0184059401
 10
-0.8066263791
 20
19.038353503
 10
-0.0896708723
 20
19.0460326896
 10
0.6275040742
 20
19.0414247077
 10
1.3431434131
 20
19.0245408338
 10
2.0554958549
 20
18.9954223855
 10
2.762818154
 20
18.9541406206
 10
3.463379374
 20
18.9007965624
 10
4.1554651244
 20
18.8355207529
 10
4.8373817553
 20
18.7584729328
 10
5.5074605024
 20
18.6698416511
 10
6.1640615708
 20
18.5698438034
 10
6.8055781476
 20
18.4587241011
 10
7.4304403342
 20
18.3367544729
 10
8.0371189882
 20
18.2042333988
 10
8.6241294653
 20
18.0614851801
 10
9.1900352523
 20
17.9088591456
 10
9.7334514832
 20
17.7467287968
 10
10.2530483272
 20
17.5754908938
  0
LWPOLYLINE
  5
52
330
1F
100
AcDbEntity
  8
0
  6
Continuous
 62
     7
370
    15
100
AcDbPolyline
 90
       71
 70
   128
 43
0.0
 10
17.35
 20
10.5070662235
 10
17.3430764192
 20
10.337353189
 10
17.3032145222
 20
10.0661503778
 10
17.2280031494
 20
9.7958483324
 10
17.1175959533
 20
9.5269992644
 10
16.9722184895
 20
9.2601524171
 10
16.7921677559
 20
8.9958529432
 10
16.5778115858
 20
8.7346407914
 10
16.3295878964
 20
8.4770496032
 10
16.0480037947
 20
8.2236056227
 10
15.7336345408
 20
7.9748266214
 10
15.3871223731
 20
7.7312208404
 10
15.0091751961
 20
7.4932859525
 10
14.6005651341
 20
7.261508045
 10
14.1621269542
 20
7.036360627
 10
13.6947563604
 20
6.8183036615
 10
13.1994081641
 20
6.6077826266
 10
12.6770943332
 20
6.4052276047
 10
12.128881925
 20
6.211052404
 10
11.555890906
 20
6.0256537135
 10
10.9592918641
 20
5.8494102918
 10
10.3403036168
 20
5.6826821944
 10
9.7001907217
 20
5.5258100371
 10
9.0402608929
 20
5.3791143008
 10
8.361862329
 20
5.2428946764
 10
7.6663809595
 20
5.1174294528
 10
6.955237613
 20
5.0029749484
 10
6.2298851146
 20
4.899764987
 10
5.4918053179
 20
4.8080104207
 10
4.7425060776
 20
4.7278986989
 10
3.9835181691
 20
4.6595934852
 10
3.2163921613
 20
4.6032343233
 10
2.4426952486
 20
4.5589363516
 10
1.6640080494
 20
4.5267900685
 10
0.8819213772
 20
4.5068611468
 10
0.0980329901
 20
4.4991903003
 10
-0.6860556727
 20
4.5037932001
 10
-1.4687427632
 20
4.5206604427
 10
-2.2484292963
 20
4.5497575692
 10
-3.0235224172
 20
4.591025136
 10
-3.7924386551
 20
4.6443788357
 10
-4.5536071581
 20
4.7097096699
 10
-5.3054729026
 20
4.7868841713
 10
-6.0464998699
 20
4.8757446768
 10
-6.7751741845
 20
4.9761096496
 10
-7.4900072065
 20
5.0877740498
 10
-8.1895385729
 20
5.2105097533
 10
-8.8723391812
 20
5.3440660182
 10
-9.537014109
 20
5.4881699967
 10
-10.1822054635
 20
5.6425272926
 10
-10.8065951556
 20
5.8068225628
 10
-11.408907593
 20
5.9807201615
 10
-11.987912286
 20
6.1638648258
 10
-12.5424263611
 20
6.3558824017
 10
-13.0713169778
 20
6.5563806083
 10
-13.5735036429
 20
6.7649498392
 10
-14.0479604178
 20
6.9811639995
 10
-14.4937180145
 20
7.204581376
 10
-14.9098657758
 20
7.4347455398
 10
-15.2955535357
 20
7.6711862787
 10
-15.6499933561
 20
7.9134205579
 10
-15.9724611369
 20
8.1609535065
 10
-16.2622980948
 20
8.413279429
 10
-16.5189121095
 20
8.6698828379
 10
-16.7417789333
 20
8.9302395072
 10
-16.930443262
 20
9.1938175431
 10
-17.0845196653
 20
9.4600784708
 10
-17.2036933738
 20
9.7284783346
 10
-17.2877209225
 20
9.9984688087
 10
-17.336430648
 20
10.2694983183
 10
-17.35
 20
10.5070662235
  0
LWPOLYLINE
  5
53
330
1F
100
AcDbEntity
  8
0
  6
Continuous
 62
     7
370
    15
100
AcDbPolyline
 90
       75
 70
   128
 43
0.0
 10
17.35
 20
11.0276087357
 10
17.3813729166
 20
10.8816422664
 10
17.4124980665
 20
10.6092842342
 10
17.4080504807
 20
10.3367173765
 10
17.3680392451
 20
10.0644985317
 10
17.2925461006
 20
9.7931838273
 10
17.1817252753
 20
9.5233275438
 10
17.0358031698
 20
9.255480982
 10
16.8550778945
 20
8.9901913372
 10
16.6399186609
 20
8.7280005809
 10
16.3907650269
 20
8.4694443537
 10
16.1081259992
 20
8.2150508712
 10
15.792578993
 20
7.9653398448
 10
15.4447686529
 20
7.7208214197
 10
15.0654055354
 20
7.4819951331
 10
14.6552646577
 20
7.2493488934
 10
14.215183914
 20
7.0233579835
 10
13.7460623641
 20
6.80448409
 10
13.2488583964
 20
6.5931743596
 10
12.7245877702
 20
6.389860486
 10
12.1743215403
 20
6.1949578278
 10
11.5991838691
 20
6.00886456
 10
11.0003497298
 20
5.8319608604
 10
10.3790425064
 20
5.6646081332
 10
9.7365314939
 20
5.5071482704
 10
9.0741293054
 20
5.3599029535
 10
8.3931891908
 20
5.2231729962
 10
7.6951022715
 20
5.09723773
 10
6.9812946992
 20
4.9823544335
 10
6.2532247419
 20
4.8787578066
 10
5.5123798047
 20
4.7866594912
 10
4.7602733915
 20
4.706247639
 10
3.9984420124
 20
4.6376865269
 10
3.2284420455
 20
4.5811162211
 10
2.4518465564
 20
4.5366522916
 10
1.6702420854
 20
4.5043855757
 10
0.8852254054
 20
4.4843819924
 10
0.0984002607
 20
4.4766824078
 10
-0.6886259101
 20
4.4813025519
 10
-1.4742452577
 20
4.4982329859
 10
-2.2568528066
 20
4.5274391218
 10
-3.0348497346
 20
4.5688612933
 10
-3.8066466385
 20
4.6224148772
 10
-4.5706667814
 20
4.6879904667
 10
-5.325349314
 20
4.7654540944
 10
-6.0691524631
 20
4.8546475068
 10
-6.8005566815
 20
4.9553884867
 10
-7.5180677522
 20
5.0674712261
 10
-8.2202198413
 20
5.1906667464
 10
-8.9055784923
 20
5.3247233662
 10
-9.5727435567
 20
5.4693672155
 10
-10.2203520546
 20
5.6243027952
 10
-10.8470809588
 20
5.7892135808
 10
-11.4516498982
 20
5.963762669
 10
-12.032823773
 20
6.1475934661
 10
-12.5894152783
 20
6.3403304162
 10
-13.1202873296
 20
6.5415797688
 10
-13.6243553856
 20
6.750930383
 10
-14.1005896643
 20
6.9679545676
 10
-14.5480172463
 20
7.1922089544
 10
-14.9657240626
 20
7.4232354047
 10
-15.3528567622
 20
7.6605619446
 10
-15.7086244552
 20
7.9037037297
 10
-16.0323003285
 20
8.1521640352
 10
-16.3232231308
 20
8.4054352709
 10
-16.5807985237
 20
8.6630000183
 10
-16.8045002952
 20
8.9243320872
 10
-16.9938714356
 20
9.1888975913
 10
-17.1485250703
 20
9.4561560383
 10
-17.268145251
 20
9.7255614347
 10
-17.3524876003
 20
9.9965634006
 10
-17.4013798118
 20
10.2686082944
 10
-17.4147220015
 20
10.5411403442
 10
-17.3924869119
 20
10.8136027825
 10
-17.35
 20
11.0276087357
  0
LWPOLYLINE
  5
54
330
1F
100
AcDbEntity
  8
0
  6
Continuous
 62
     7
370
    15
100
AcDbPolyline
 90
       71
 70
   128
 43
0.0
 10
17.415
 20
5.1128134748
 10
17.4080504807
 20
4.9424646278
 10
17.3680392451
 20
4.670245783
 10
17.2925461006
 20
4.3989310787
 10
17.1817252753
 20
4.1290747951
 10
17.0358031698
 20
3.8612282334
 10
16.8550778945
 20
3.5959385885
 10
16.6399186609
 20
3.3337478322
 10
16.3907650269
 20
3.075191605
 10
16.1081259992
 20
2.8207981225
 10
15.792578993
 20
2.5710870961
 10
15.4447686529
 20
2.326568671
 10
15.0654055354
 20
2.0877423844
 10
14.6552646577
 20
1.8550961447
 10
14.215183914
 20
1.6291052348
 10
13.7460623641
 20
1.4102313413
 10
13.2488583964
 20
1.1989216109
 10
12.7245877702
 20
0.9956077373
 10
12.1743215403
 20
0.8007050791
 10
11.5991838691
 20
0.6146118113
 10
11.0003497298
 20
0.4377081117
 10
10.3790425064
 20
0.2703553845
 10
9.7365314939
 20
0.1128955217
 10
9.0741293054
 20
-0.0343497952
 10
8.3931891908
 20
-0.1710797524
 10
7.6951022715
 20
-0.2970150186
 10
6.9812946992
 20
-0.4118983152
 10
6.2532247419
 20
-0.5154949421
 10
5.5123798047
 20
-0.6075932574
 10
4.7602733915
 20
-0.6880051096
 10
3.9984420124
 20
-0.7565662218
 10
3.2284420455
 20
-0.8131365276
 10
2.4518465564
 20
-0.8576004571
 10
1.6702420854
 20
-0.889867173
 10
0.8852254054
 20
-0.9098707563
 10
0.0984002607
 20
-0.9175703408
 10
-0.6886259101
 20
-0.9129501968
 10
-1.4742452577
 20
-0.8960197628
 10
-2.2568528066
 20
-0.8668136268
 10
-3.0348497346
 20
-0.8253914553
 10
-3.8066466385
 20
-0.7718378714
 10
-4.5706667814
 20
-0.706262282
 10
-5.325349314
 20
-0.6287986542
 10
-6.0691524631
 20
-0.5396052419
 10
-6.8005566815
 20
-0.438864262
 10
-7.5180677522
 20
-0.3267815226
 10
-8.2202198413
 20
-0.2035860023
 10
-8.9055784923
 20
-0.0695293825
 10
-9.5727435567
 20
0.0751144668
 10
-10.2203520546
 20
0.2300500465
 10
-10.8470809588
 20
0.3949608321
 10
-11.4516498982
 20
0.5695099204
 10
-12.032823773
 20
0.7533407174
 10
-12.5894152783
 20
0.9460776676
 10
-13.1202873296
 20
1.1473270202
 10
-13.6243553856
 20
1.3566776344
 10
-14.1005896643
 20
1.5737018189
 10
-14.5480172463
 20
1.7979562057
 10
-14.9657240626
 20
2.028982656
 10
-15.3528567622
 20
2.266309196
 10
-15.7086244552
 20
2.5094509811
 10
-16.0323003285
 20
2.7579112865
 10
-16.3232231308
 20
3.0111825223
 10
-16.5807985237
 20
3.2687472696
 10
-16.8045002952
 20
3.5300793385
 10
-16.9938714356
 20
3.7946448426
 10
-17.1485250703
 20
4.0619032897
 10
-17.268145251
 20
4.331308686
 10
-17.3524876003
 20
4.6023106519
 10
-17.4013798118
 20
4.8743555458
 10
-17.415
 20
5.1128134748
  0
LWPOLYLINE
  5
55
330
1F
100
AcDbEntity
  8
0
  6
Continuous
 62
     7
370
    15
100
AcDbPolyline
 90
       71
 70
   128
 43
0.0
 10
17.415
 20
1.4212683329
 10
17.4080504807
 20
1.2509194859
 10
17.3680392451
 20
0.9787006411
 10
17.2925461006
 20
0.7073859368
 10
17.1817252753
 20
0.4375296532
 10
17.0358031698
 20
0.1696830915
 10
16.8550778945
 20
-0.0956065534
 10
16.6399186609
 20
-0.3577973097
 10
16.3907650269
 20
-0.6163535369
 10
16.1081259992
 20
-0.8707470194
 10
15.792578993
 20
-1.1204580458
 10
15.4447686529
 20
-1.3649764709
 10
15.0654055354
 20
-1.6038027575
 10
14.6552646577
 20
-1.8364489972
 10
14.215183914
 20
-2.0624399071
 10
13.7460623641
 20
-2.2813138006
 10
13.2488583964
 20
-2.492623531
 10
12.7245877702
 20
-2.6959374046
 10
12.1743215403
 20
-2.8908400628
 10
11.5991838691
 20
-3.0769333306
 10
11.0003497298
 20
-3.2538370302
 10
10.3790425064
 20
-3.4211897574
 10
9.7365314939
 20
-3.5786496202
 10
9.0741293054
 20
-3.7258949371
 10
8.3931891908
 20
-3.8626248943
 10
7.6951022715
 20
-3.9885601605
 10
6.9812946992
 20
-4.1034434571
 10
6.2532247419
 20
-4.207040084
 10
5.5123798047
 20
-4.2991383994
 10
4.7602733915
 20
-4.3795502515
 10
3.9984420124
 20
-4.4481113637
 10
3.2284420455
 20
-4.5046816695
 10
2.4518465564
 20
-4.549145599
 10
1.6702420854
 20
-4.5814123149
 10
0.8852254054
 20
-4.6014158982
 10
0.0984002607
 20
-4.6091154827
 10
-0.6886259101
 20
-4.6044953387
 10
-1.4742452577
 20
-4.5875649047
 10
-2.2568528066
 20
-4.5583587688
 10
-3.0348497346
 20
-4.5169365973
 10
-3.8066466385
 20
-4.4633830133
 10
-4.5706667814
 20
-4.3978074239
 10
-5.325349314
 20
-4.3203437962
 10
-6.0691524631
 20
-4.2311503838
 10
-6.8005566815
 20
-4.1304094039
 10
-7.5180677522
 20
-4.0183266645
 10
-8.2202198413
 20
-3.8951311442
 10
-8.9055784923
 20
-3.7610745244
 10
-9.5727435567
 20
-3.6164306751
 10
-10.2203520546
 20
-3.4614950954
 10
-10.8470809588
 20
-3.2965843098
 10
-11.4516498982
 20
-3.1220352215
 10
-12.032823773
 20
-2.9382044245
 10
-12.5894152783
 20
-2.7454674744
 10
-13.1202873296
 20
-2.5442181217
 10
-13.6243553856
 20
-2.3348675075
 10
-14.1005896643
 20
-2.117843323
 10
-14.5480172463
 20
-1.8935889362
 10
-14.9657240626
 20
-1.6625624859
 10
-15.3528567622
 20
-1.4252359459
 10
-15.7086244552
 20
-1.1820941609
 10
-16.0323003285
 20
-0.9336338554
 10
-16.3232231308
 20
-0.6803626196
 10
-16.5807985237
 20
-0.4227978723
 10
-16.8045002952
 20
-0.1614658034
 10
-16.9938714356
 20
0.1030997007
 10
-17.1485250703
 20
0.3703581478
 10
-17.268145251
 20
0.6397635441
 10
-17.3524876003
 20
0.91076551
 10
-17.4013798118
 20
1.1828104039
 10
-17.415
 20
1.4212683329
  0
SPLINE
  5
56
330
1F
100
AcDbEntity
  8
0
  6
Continuous
 62
     7
370
    15
100
AcDbSpline
210
0.0
220
0.0
230
1.0
 70
     8
 71
     3
 72
    12
 73
     8
 74
     0
 42
0.00000001
 43
0.00000001
 12
1.0
 22
0.0
 32
0.0
 13
1.0
 23
0.0
 33
0.0
 40
0.0
 40
0.0
 40
0.0
 40
0.0
 40
0.2500000000000004
 40
0.2500000000000004
 40
0.5000000000000008
 40
0.5000000000000008
 40
1.0
 40
1.0
 40
1.0
 40
1.0
 10
-13.95448564587138
 20
-0.9059706016211764
 30
0.0
 10
-14.03406811614006
 20
-0.8690613167169113
 30
0.0
 10
-14.11083973632383
 20
-0.8084028727797024
 30
0.0
 10
-14.25284823226988
 20
-0.6460776446932347
 30
0.0
 10
-14.31693678866213
 20
-0.5451951053966906
 30
0.0
 10
-14.47630479406171
 20
-0.2061755046359236
 30
0.0
 10
-14.53787968209145
 20
0.0701830363927149
 30
0.0
 10
-14.53787968209145
 20
0.3198571589383067
 30
0.0
  0
SPLINE
  5
58
330
1F
100
AcDbEntity
  8
0
  6
Continuous
 62
     7
370
    15
100
AcDbSpline
210
0.0
220
0.0
230
1.0
 70
     8
 71
     3
 72
    14
 73
    10
 74
     0
 42
0.00000001
 43
0.00000001
 12
1.0
 22
0.0
 32
0.0
 13
1.0
 23
0.0
 33
0.0
 40
0.0
 40
0.0
 40
0.0
 40
0.0
 40
0.25
 40
0.25
 40
0.5
 40
0.5
 40
0.75
 40
0.75
 40
1.0
 40
1.0
 40
1.0
 40
1.0
 10
-9.588132213785624
 20
-1.394145339747419
 30
0.0
 10
-9.588132213785624
 20
-1.518949406253704
 30
0.0
 10
-9.610713642470948
 20
-1.636313591981484
 30
0.0
 10
-9.696645567798779
 20
-1.844180816455438
 30
0.0
 10
-9.760008489022226
 20
-1.933516016855924
 30
0.0
 10
-9.91493278860816
 20
-2.068992283642366
 30
0.0
 10
-10.00773610294842
 20
-2.115998898245462
 30
0.0
 10
-10.20553299073819
 20
-2.160057888258915
 30
0.0
 10
-10.31239455234179
 20
-2.157808084692844
 30
0.0
 10
-10.41895173993865
 20
-2.130258100682411
 30
0.0
  0
LWPOLYLINE
  5
5A
330
1F
100
AcDbEntity
  8
0
  6
Continuous
 62
     7
370
    15
100
AcDbPolyline
 90
       15
 70
   128
 43
0.0
 10
-14.5378796821
 20
1.3235619529
 10
-14.9564374588
 20
1.5545195306
 10
-15.3444180823
 20
1.7917927709
 10
-15.7010283597
 20
2.0348965891
 10
-16.0255392317
 20
2.2833339801
 10
-16.3172872638
 20
2.5365970351
 10
-16.5756760021
 20
2.7941679795
 10
-16.800177193
 20
3.0555202316
 10
-16.9903318631
 20
3.3201194791
 10
-17.1457512575
 20
3.5874247716
 10
-17.2661176345
 20
3.8568896264
 10
-17.3511849155
 20
4.1279631456
 10
-17.4007791876
 20
4.4000911428
 10
-17.4147990598
 20
4.6727172755
 10
-17.4018246872
 20
4.8782807466
  0
LWPOLYLINE
  5
5B
330
1F
100
AcDbEntity
  8
0
  6
Continuous
 62
     7
370
    15
100
AcDbPolyline
 90
       50
 70
   128
 43
0.0
 10
17.4018246872
 20
4.8782807466
 10
17.4125790923
 20
4.7442973444
 10
17.4079055821
 20
4.4716327915
 10
17.3676431026
 20
4.1993201135
 10
17.2918739668
 20
3.9279160301
 10
17.1807530784
 20
3.6579754038
 10
17.0345076144
 20
3.3900501051
 10
16.8534365612
 20
3.1246878842
 10
16.637910103
 20
2.8624312513
 10
16.3883688651
 20
2.6038163678
 10
16.1053230132
 20
2.3493719495
 10
15.7893512102
 20
2.0996181863
 10
15.4410994334
 20
1.8550656781
 10
15.0612796537
 20
1.6162143918
 10
14.65066838
 20
1.3835526382
 10
14.2101050718
 20
1.1575560743
 10
13.740490423
 20
0.9386867307
 10
13.2427845205
 20
0.7273920671
 10
12.7180048813
 20
0.5241040571
 10
12.1672243723
 20
0.3292383058
 10
11.591569017
 20
0.1431931994
 10
10.9922156935
 20
-0.0336509089
 10
10.3703897281
 20
-0.2009324763
 10
9.7273623907
 20
-0.3583095102
 10
9.0644482955
 20
-0.5054602666
 10
8.3830027134
 20
-0.6420839085
 10
7.6844188016
 20
-0.7679011205
 10
6.9701247549
 20
-0.8826546802
 10
6.2415808862
 20
-0.9861099838
 10
5.5002766408
 20
-1.0780555257
 10
4.7477275518
 20
-1.1583033311
 10
3.9854721412
 20
-1.2266893405
 10
3.2150687748
 20
-1.2830737443
 10
2.438092476
 20
-1.3273412696
 10
1.6561317065
 20
-1.3594014151
 10
0.8707851177
 20
-1.3791886367
 10
0.0836582835
 20
-1.386662481
 10
-0.7036395829
 20
-1.3818076686
 10
-1.4894989186
 20
-1.3646341245
 10
-2.2723131015
 20
-1.3351769586
 10
-3.0504817353
 20
-1.2934963936
 10
-3.8224139208
 20
-1.2396776418
 10
-4.5865315091
 20
-1.1738307311
 10
-5.3412723272
 20
-1.0960902798
 10
-6.0850933724
 20
-1.0066152215
 10
-6.8164739662
 20
-0.9055884804
 10
-7.5339188639
 20
-0.793216597
 10
-8.2359613109
 20
-0.6697293059
 10
-8.9211660416
 20
-0.5353790663
 10
-9.5881322138
 20
-0.3904405458
  0
LWPOLYLINE
  5
5F
330
1F
100
AcDbEntity
  8
0
  6
Continuous
 62
     7
370
    15
100
AcDbPolyline
 90
       65
 70
   128
 43
0.0
 10
2.6516504294
 20
14.9432727708
 10
2.8987892001
 20
14.8488504419
 10
3.1180110461
 20
14.7464945332
 10
3.3072047413
 20
14.6371907882
 10
3.4645482469
 20
14.5219918615
 10
3.588526259
 20
14.4020071819
 10
3.6779448015
 20
14.2783922673
 10
3.731942725
 20
14.1523375971
 10
3.75
 20
14.0250571465
 10
3.731942725
 20
13.897776696
 10
3.6779448015
 20
13.7717220257
 10
3.588526259
 20
13.6481071112
 10
3.4645482469
 20
13.5281224316
 10
3.3072047413
 20
13.4129235049
 10
3.1180110461
 20
13.3036197598
 10
2.8987892001
 20
13.2012638511
 10
2.6516504294
 20
13.1068415222
 10
2.3789748156
 20
13.0212621117
 10
2.0833883738
 20
12.9453497962
 10
1.7677377631
 20
12.8798356526
 10
1.4350628714
 20
12.825350618
 10
1.0885675397
 20
12.7824194132
 10
0.7315887076
 20
12.751455489
 10
0.3675642762
 20
12.732757045
 10
0.0
 20
12.7265041575
 10
-0.3675642762
 20
12.732757045
 10
-0.7315887076
 20
12.751455489
 10
-1.0885675397
 20
12.7824194132
 10
-1.4350628714
 20
12.825350618
 10
-1.7677377631
 20
12.8798356526
 10
-2.0833883738
 20
12.9453497962
 10
-2.3789748156
 20
13.0212621117
 10
-2.6516504294
 20
13.1068415222
 10
-2.8987892001
 20
13.2012638511
 10
-3.1180110461
 20
13.3036197598
 10
-3.3072047413
 20
13.4129235049
 10
-3.4645482469
 20
13.5281224316
 10
-3.588526259
 20
13.6481071112
 10
-3.6779448015
 20
13.7717220257
 10
-3.731942725
 20
13.897776696
 10
-3.75
 20
14.0250571465
 10
-3.731942725
 20
14.1523375971
 10
-3.6779448015
 20
14.2783922673
 10
-3.588526259
 20
14.4020071819
 10
-3.4645482469
 20
14.5219918615
 10
-3.3072047413
 20
14.6371907882
 10
-3.1180110461
 20
14.7464945332
 10
-2.8987892001
 20
14.8488504419
 10
-2.6516504294
 20
14.9432727708
 10
-2.3789748156
 20
15.0288521813
 10
-2.0833883738
 20
15.1047644969
 10
-1.7677377631
 20
15.1702786405
 10
-1.4350628714
 20
15.224763675
 10
-1.0885675397
 20
15.2676948798
 10
-0.7315887076
 20
15.298658804
 10
-0.3675642762
 20
15.317357248
 10
0.0
 20
15.3236101356
 10
0.3675642762
 20
15.317357248
 10
0.7315887076
 20
15.298658804
 10
1.0885675397
 20
15.2676948798
 10
1.4350628714
 20
15.224763675
 10
1.7677377631
 20
15.1702786405
 10
2.0833883738
 20
15.1047644969
 10
2.3789748156
 20
15.0288521813
 10
2.6516504294
 20
14.9432727708
  0
LWPOLYLINE
  5
60
330
1F
100
AcDbEntity
  8
0
  6
Continuous
 62
     7
370
    15
100
AcDbPolyline
 90
       39
 70
   128
 43
0.0
 10
4.6951890271
 20
15.6509109453
 10
4.8665897805
 20
15.6006416968
 10
5.0595468887
 20
15.5608272034
 10
5.2687969845
 20
15.5325535007
 10
5.488632271
 20
15.5165918216
 10
5.7130562145
 20
15.5133775591
 10
5.9359471149
 20
15.5229983899
 10
6.1512250895
 20
15.5451918829
 10
6.3530179163
 20
15.5793526573
 10
6.535821213
 20
15.6245488963
 10
6.6946485822
 20
15.6795477643
 10
6.8251676274
 20
15.7428490356
 10
6.9238181292
 20
15.8127260165
 10
6.9879091591
 20
15.8872726451
 10
7.0156924809
 20
15.9644554838
 10
7.0064102379
 20
16.0421691858
 10
6.9603156256
 20
16.1182939241
 10
6.8786659849
 20
16.190753214
 10
6.763688505
 20
16.2575705552
 10
6.6185194719
 20
16.3169233448
 10
6.4471187184
 20
16.3671925932
 10
6.2541616103
 20
16.4070070866
 10
6.0449115145
 20
16.4352807893
 10
5.825076228
 20
16.4512424684
 10
5.6006522845
 20
16.4544567309
 10
5.3777613841
 20
16.4448359001
 10
5.1624834095
 20
16.4226424072
 10
4.9606905827
 20
16.3884816328
 10
4.777887286
 20
16.3432853938
 10
4.6190599167
 20
16.2882865257
 10
4.4885408715
 20
16.2249852544
 10
4.3898903697
 20
16.1551082735
 10
4.3257993398
 20
16.0805616449
 10
4.2980160181
 20
16.0033788063
 10
4.3072982611
 20
15.9256651042
 10
4.3533928733
 20
15.849540366
 10
4.4350425141
 20
15.777081076
 10
4.550019994
 20
15.7102637348
 10
4.6951890271
 20
15.6509109453
  0
LWPOLYLINE
  5
61
330
1F
100
AcDbEntity
  8
0
  6
Continuous
 62
     7
370
    15
100
AcDbPolyline
 90
       39
 70
   128
 43
0.0
 10
4.6951890271
 20
11.7331909483
 10
4.8665897805
 20
11.6829216998
 10
5.0595468887
 20
11.6431072064
 10
5.2687969845
 20
11.6148335037
 10
5.488632271
 20
11.5988718246
 10
5.7130562145
 20
11.5956575621
 10
5.9359471149
 20
11.605278393
 10
6.1512250895
 20
11.6274718859
 10
6.3530179163
 20
11.6616326603
 10
6.535821213
 20
11.7068288993
 10
6.6946485822
 20
11.7618277673
 10
6.8251676274
 20
11.8251290386
 10
6.9238181292
 20
11.8950060195
 10
6.9879091591
 20
11.9695526481
 10
7.0156924809
 20
12.0467354868
 10
7.0064102379
 20
12.1244491888
 10
6.9603156256
 20
12.2005739271
 10
6.8786659849
 20
12.273033217
 10
6.763688505
 20
12.3398505582
 10
6.6185194719
 20
12.3992033478
 10
6.4471187184
 20
12.4494725963
 10
6.2541616103
 20
12.4892870896
 10
6.0449115145
 20
12.5175607923
 10
5.825076228
 20
12.5335224714
 10
5.6006522845
 20
12.5367367339
 10
5.3777613841
 20
12.5271159031
 10
5.1624834095
 20
12.5049224102
 10
4.9606905827
 20
12.4707616358
 10
4.777887286
 20
12.4255653968
 10
4.6190599167
 20
12.3705665288
 10
4.4885408715
 20
12.3072652575
 10
4.3898903697
 20
12.2373882765
 10
4.3257993398
 20
12.1628416479
 10
4.2980160181
 20
12.0856588093
 10
4.3072982611
 20
12.0079451072
 10
4.3533928733
 20
11.931820369
 10
4.4350425141
 20
11.859361079
 10
4.550019994
 20
11.7925437378
 10
4.6951890271
 20
11.7331909483
  0
LWPOLYLINE
  5
62
330
1F
100
AcDbEntity
  8
0
  6
Continuous
 62
     7
370
    15
100
AcDbPolyline
 90
       39
 70
   128
 43
0.0
 10
-6.6185194719
 20
11.7331909483
 10
-6.4471187184
 20
11.6829216998
 10
-6.2541616103
 20
11.6431072064
 10
-6.0449115145
 20
11.6148335037
 10
-5.825076228
 20
11.5988718246
 10
-5.6006522845
 20
11.5956575621
 10
-5.3777613841
 20
11.605278393
 10
-5.1624834095
 20
11.6274718859
 10
-4.9606905827
 20
11.6616326603
 10
-4.777887286
 20
11.7068288993
 10
-4.6190599167
 20
11.7618277673
 10
-4.4885408715
 20
11.8251290386
 10
-4.3898903697
 20
11.8950060195
 10
-4.3257993398
 20
11.9695526481
 10
-4.2980160181
 20
12.0467354868
 10
-4.307298261
 20
12.1244491888
 10
-4.3533928733
 20
12.2005739271
 10
-4.4350425141
 20
12.273033217
 10
-4.550019994
 20
12.3398505582
 10
-4.6951890271
 20
12.3992033478
 10
-4.8665897805
 20
12.4494725963
 10
-5.0595468887
 20
12.4892870896
 10
-5.2687969845
 20
12.5175607923
 10
-5.488632271
 20
12.5335224714
 10
-5.7130562145
 20
12.5367367339
 10
-5.9359471149
 20
12.5271159031
 10
-6.1512250895
 20
12.5049224102
 10
-6.3530179163
 20
12.4707616358
 10
-6.535821213
 20
12.4255653968
 10
-6.6946485822
 20
12.3705665288
 10
-6.8251676274
 20
12.3072652575
 10
-6.9238181292
 20
12.2373882765
 10
-6.9879091591
 20
12.1628416479
 10
-7.0156924809
 20
12.0856588093
 10
-7.0064102379
 20
12.0079451072
 10
-6.9603156256
 20
11.931820369
 10
-6.8786659849
 20
11.859361079
 10
-6.763688505
 20
11.7925437378
 10
-6.6185194719
 20
11.7331909483
  0
LWPOLYLINE
  5
63
330
1F
100
AcDbEntity
  8
0
  6
Continuous
 62
     7
370
    15
100
AcDbPolyline
 90
       39
 70
   128
 43
0.0
 10
-6.6185194719
 20
15.6509109453
 10
-6.4471187184
 20
15.6006416968
 10
-6.2541616103
 20
15.5608272034
 10
-6.0449115145
 20
15.5325535007
 10
-5.825076228
 20
15.5165918216
 10
-5.6006522845
 20
15.5133775591
 10
-5.3777613841
 20
15.5229983899
 10
-5.1624834095
 20
15.5451918829
 10
-4.9606905827
 20
15.5793526573
 10
-4.777887286
 20
15.6245488963
 10
-4.6190599167
 20
15.6795477643
 10
-4.4885408715
 20
15.7428490356
 10
-4.3898903697
 20
15.8127260165
 10
-4.3257993398
 20
15.8872726451
 10
-4.2980160181
 20
15.9644554838
 10
-4.307298261
 20
16.0421691858
 10
-4.3533928733
 20
16.1182939241
 10
-4.4350425141
 20
16.190753214
 10
-4.550019994
 20
16.2575705552
 10
-4.6951890271
 20
16.3169233448
 10
-4.8665897805
 20
16.3671925932
 10
-5.0595468887
 20
16.4070070866
 10
-5.2687969845
 20
16.4352807893
 10
-5.488632271
 20
16.4512424684
 10
-5.7130562145
 20
16.4544567309
 10
-5.9359471149
 20
16.4448359001
 10
-6.1512250895
 20
16.4226424072
 10
-6.3530179163
 20
16.3884816328
 10
-6.535821213
 20
16.3432853938
 10
-6.6946485822
 20
16.2882865257
 10
-6.8251676274
 20
16.2249852544
 10
-6.9238181292
 20
16.1551082735
 10
-6.9879091591
 20
16.0805616449
 10
-7.0156924809
 20
16.0033788063
 10
-7.0064102379
 20
15.9256651042
 10
-6.9603156256
 20
15.849540366
 10
-6.8786659849
 20
15.777081076
 10
-6.763688505
 20
15.7102637348
 10
-6.6185194719
 20
15.6509109453
  0
LWPOLYLINE
  5
64
330
1F
100
AcDbEntity
  8
0
  6
Continuous
 62
     7
370
    15
100
AcDbPolyline
 90
       53
 70
   128
 43
0.0
 10
14.7771837635
 20
-2.0323125289
 10
14.6716548241
 20
-2.1220132655
 10
14.3658938336
 20
-2.3595700144
 10
14.0280769165
 20
-2.59186164
 10
13.6589578745
 20
-2.8183698087
 10
13.2593603565
 20
-3.0385890924
 10
12.8301760209
 20
-3.2520280956
 10
12.3723625456
 20
-3.4582105526
 10
11.8869414917
 20
-3.6566763895
 10
11.3749960232
 20
-3.8469827516
 10
10.8376684907
 20
-4.0287049909
 10
10.276157882
 20
-4.2014376141
 10
9.6917171469
 20
-4.3647951871
 10
9.0856504011
 20
-4.5184131953
 10
8.4593100166
 20
-4.6619488568
 10
7.8140936037
 20
-4.7950818876
 10
7.1514408924
 20
-4.9175152156
 10
6.4728305201
 20
-5.0289756443
 10
5.779776732
 20
-5.129214462
 10
5.0738260019
 20
-5.2180079965
 10
4.356553582
 20
-5.2951581148
 10
3.6295599876
 20
-5.3604926649
 10
2.8944674255
 20
-5.4138658597
 10
2.1529161749
 20
-5.4551586028
 10
1.4065609264
 20
-5.4842787541
 10
0.6570670906
 20
-5.5011613349
 10
-0.0938929189
 20
-5.5057686737
 10
-0.8446434166
 20
-5.4980904898
 10
-1.5935091846
 20
-5.478143916
 10
-2.3388192104
 20
-5.4459734611
 10
-3.0789104161
 20
-5.40165091
 10
-3.8121313687
 20
-5.3452751634
 10
-4.5368459656
 20
-5.2769720179
 10
-5.2514370851
 20
-5.1968938844
 10
-5.954310195
 20
-5.1052194485
 10
-6.6438969107
 20
-5.0021532717
 10
-7.3186584944
 20
-4.8879253351
 10
-7.9770892893
 20
-4.7627905257
 10
-8.6177200787
 20
-4.6270280684
 10
-9.2391213649
 20
-4.4809409021
 10
-9.8399065586
 20
-4.3248550045
 10
-10.4187350732
 20
-4.1591186643
 10
-10.9743153159
 20
-3.9841017041
 10
-11.5054075698
 20
-3.800194655
 10
-12.0108267607
 20
-3.6078078857
 10
-12.4894451005
 20
-3.4073706863
 10
-12.9401946046
 20
-3.1993303106
 10
-13.3620694747
 20
-2.9841509779
 10
-13.7541283428
 20
-2.7623128375
 10
-14.1154963725
 20
-2.534310897
 10
-14.4453672103
 20
-2.300653918
 10
-14.7430047854
 20
-2.0618632804
 10
-14.7771837635
 20
-2.0323125289
  0
SPLINE
  5
66
330
1F
100
AcDbEntity
  8
0
  6
Continuous
 62
     7
370
    15
100
AcDbSpline
210
0.0
220
0.0
230
1.0
 70
     8
 71
     3
 72
    14
 73
    10
 74
     0
 42
0.00000001
 43
0.00000001
 12
1.0
 22
0.0
 32
0.0
 13
1.0
 23
0.0
 33
0.0
 40
0.0
 40
0.0
 40
0.0
 40
0.0
 40
0.25
 40
0.25
 40
0.5
 40
0.5
 40
0.75
 40
0.75
 40
1.0
 40
1.0
 40
1.0
 40
1.0
 10
-13.44209763083709
 20
0.6993054410761806
 30
0.0
 10
-13.44209763083709
 20
0.5743118745191395
 30
0.0
 10
-13.42760581827163
 20
0.443639918086416
 30
0.0
 10
-13.37169503514521
 20
0.1855291898458719
 30
0.0
 10
-13.33020546262524
 20
0.0591583899603454
 30
0.0
 10
-13.22654508136089
 20
-0.1673673438290458
 30
0.0
 10
-13.16346429178312
 20
-0.2691963780796919
 30
0.0
 10
-13.02540390338638
 20
-0.4313174451116485
 30
0.0
 10
-12.94910987072125
 20
-0.4934224972883557
 30
0.0
 10
-12.87091965839199
 20
-0.5307525077845208
 30
0.0
  0
LWPOLYLINE
  5
6B
330
1F
100
AcDbEntity
  8
0
  6
Continuous
 62
     7
370
    15
100
AcDbPolyline
 90
       16
 70
   128
 43
0.0
 10
2.4748737342
 20
14.7466508621
 10
2.7125547802
 20
14.6555524875
 10
2.9224013435
 20
14.556594913
 10
3.1022601144
 20
14.4507935771
 10
3.2502854985
 20
14.3392341449
 10
3.364958555
 20
14.223061367
 10
3.4451025833
 20
14.1034673332
 10
3.4898951971
 20
13.9816792404
 10
3.4988767635
 20
13.858946799
 10
3.4719551197
 20
13.73652941
 10
3.409406518
 20
13.6156832415
 10
3.3118727918
 20
13.4976483388
 10
3.180354769
 20
13.3836358995
 10
3.0162020026
 20
13.2748158457
 10
2.8210989221
 20
13.1723048184
 10
2.783320701
 20
13.1548220263
  0
LWPOLYLINE
  5
6C
330
1F
100
AcDbEntity
  8
0
  6
Continuous
 62
     7
370
    15
100
AcDbPolyline
 90
       31
 70
   128
 43
0.0
 10
-2.783320701
 20
13.1548220263
 10
-2.9224013435
 20
13.2227043125
 10
-3.1022601144
 20
13.3285056484
 10
-3.2502854985
 20
13.4400650806
 10
-3.364958555
 20
13.5562378586
 10
-3.4451025833
 20
13.6758318923
 10
-3.4898951971
 20
13.7976199851
 10
-3.4988767635
 20
13.9203524265
 10
-3.4719551197
 20
14.0427698155
 10
-3.409406518
 20
14.163615984
 10
-3.3118727918
 20
14.2816508868
 10
-3.180354769
 20
14.395663326
 10
-3.0162020026
 20
14.5044833798
 10
-2.8210989221
 20
14.6069944071
 10
-2.5970475491
 20
14.7021445062
 10
-2.3463469538
 20
14.7889573081
 10
-2.0715696638
 20
14.8665419962
 10
-1.7755352656
 20
14.9341024464
 10
-1.461281473
 20
14.9909453972
 10
-1.132032955
 20
15.0364875629
 10
-0.791168247
 20
15.0702616194
 10
-0.4421850822
 20
15.091920999
 10
-0.0886645001
 20
15.1012434473
 10
0.2657658998
 20
15.0981333033
 10
0.6174691819
 20
15.0826224813
 10
0.9628363946
 20
15.0548701434
 10
1.298323603
 20
15.0151610659
 10
1.6204882544
 20
14.9639027179
 10
1.9260245033
 20
14.9016210794
 10
2.2117971346
 20
14.8289552442
 10
2.4748737342
 20
14.7466508621
  0
LWPOLYLINE
  5
6D
330
1F
100
AcDbEntity
  8
0
  6
Continuous
 62
     7
370
    15
100
AcDbPolyline
 90
        3
 70
   128
 43
0.0
 10
3.2528391932
 20
13.7453700822
 10
3.364958555
 20
13.6314174433
 10
3.3941419753
 20
13.5938276509
  0
LWPOLYLINE
  5
6E
330
1F
100
AcDbEntity
  8
0
  6
Continuous
 62
     7
370
    15
100
AcDbPolyline
 90
        3
 70
   128
 43
0.0
 10
-3.3941419753
 20
13.5938276509
 10
-3.3118727918
 20
13.6900069631
 10
-3.2528391932
 20
13.7453700822
  0
LWPOLYLINE
  5
6F
330
1F
100
AcDbEntity
  8
0
  6
Continuous
 62
     7
370
    15
100
AcDbPolyline
 90
        9
 70
   128
 43
0.0
 10
2.3157747084
 20
14.3109934564
 10
2.5451530238
 20
14.2227782752
 10
2.74664611
 20
14.1267437228
 10
2.9180463667
 20
14.0239419737
 10
3.0574758968
 20
13.9154993454
 10
3.1634070811
 20
13.8026039581
 10
3.2346793154
 20
13.6864927173
 10
3.2705117263
 20
13.568437762
 10
3.2718316945
 20
13.4592130596
  0
LWPOLYLINE
  5
70
330
1F
100
AcDbEntity
  8
0
  6
Continuous
 62
     7
370
    15
100
AcDbPolyline
 90
       24
 70
   128
 43
0.0
 10
-3.2718316945
 20
13.4592130596
 10
-3.2705117263
 20
13.568437762
 10
-3.2346793154
 20
13.6864927173
 10
-3.1634070811
 20
13.8026039581
 10
-3.0574758968
 20
13.9154993454
 10
-2.9180463667
 20
14.0239419737
 10
-2.74664611
 20
14.1267437228
 10
-2.5451530238
 20
14.2227782752
 10
-2.3157747084
 20
14.3109934564
 10
-2.0610242807
 20
14.3904227622
 10
-1.7836928397
 20
14.4601959488
 10
-1.4868188866
 20
14.5195485663
 10
-1.1736550348
 20
14.5678303351
 10
-0.8476323727
 20
14.60451227
 10
-0.512322873
 20
14.6291924761
 10
-0.1714002567
 20
14.6416005519
 10
0.1714002567
 20
14.6416005519
 10
0.512322873
 20
14.6291924761
 10
0.8476323727
 20
14.60451227
 10
1.1736550348
 20
14.5678303351
 10
1.4868188866
 20
14.5195485663
 10
1.7836928397
 20
14.4601959488
 10
2.0610242807
 20
14.3904227622
 10
2.3157747084
 20
14.3109934564
  0
LWPOLYLINE
  5
71
330
1F
100
AcDbEntity
  8
0
  6
Continuous
 62
     7
370
    15
100
AcDbPolyline
 90
       13
 70
   128
 43
0.0
 10
1.9622213178
 20
14.1885647065
 10
2.1731074145
 20
14.1066808456
 10
2.3556637327
 20
14.0170064108
 10
2.5075103716
 20
13.9207104456
 10
2.6266677781
 20
13.8190483151
 10
2.7115825531
 20
13.7133453406
 10
2.7611477027
 20
13.6049795221
 10
2.7747170694
 20
13.4953635738
 10
2.7521137556
 20
13.3859265071
 10
2.6936324303
 20
13.2780950015
 10
2.6000354869
 20
13.1732748058
 10
2.4725431046
 20
13.0728324113
 10
2.4019018872
 20
13.0278305355
  0
LWPOLYLINE
  5
72
330
1F
100
AcDbEntity
  8
0
  6
Continuous
 62
     7
370
    15
100
AcDbPolyline
 90
       27
 70
   128
 43
0.0
 10
-2.4019018872
 20
13.0278305355
 10
-2.435559196
 20
13.0485607934
 10
-2.5712825695
 20
13.1477015295
 10
-2.6734853423
 20
13.2515534536
 10
-2.7408351452
 20
13.3587626973
 10
-2.7724539703
 20
13.4679316239
 10
-2.767929618
 20
13.5776370496
 10
-2.7273210702
 20
13.6864487963
 10
-2.6511577213
 20
13.7929483367
 10
-2.5404324771
 20
13.8957472862
 10
-2.3965888105
 20
13.9935055033
 10
-2.2215019436
 20
14.0849485603
 10
-2.0174544015
 20
14.1688843569
 10
-1.787106256
 20
14.2442186618
 10
-1.5334604474
 20
14.3099693771
 10
-1.2598236368
 20
14.3652793416
 10
-0.9697630984
 20
14.4094275053
 10
-0.6670602149
 20
14.4418383295
 10
-0.3556611815
 20
14.4620892894
 10
-0.0396255606
 20
14.4699163829
 10
0.2769266401
 20
14.4652175718
 10
0.5898686785
 20
14.4480541123
 10
0.8951208766
 20
14.4186497563
 10
1.1887038052
 20
14.3773878346
 10
1.4667901618
 20
14.3248062595
 10
1.7257546654
 20
14.2615905121
 10
1.9622213178
 20
14.1885647065
  0
LWPOLYLINE
  5
73
330
1F
100
AcDbEntity
  8
0
  6
Continuous
 62
     7
370
    15
100
AcDbPolyline
 90
       10
 70
   128
 43
0.0
 10
1.803122292
 20
13.9223923136
 10
2.0037273408
 20
13.8441616179
 10
2.17620445
 20
13.7582640901
 10
2.3181324189
 20
13.6659055433
 10
2.4275188902
 20
13.5683824889
 10
2.5028283174
 20
13.467063937
 10
2.5430035212
 20
13.3633721778
 10
2.54748053
 20
13.2587628165
 10
2.5161964963
 20
13.154704339
 10
2.4582152788
 20
13.063228932
  0
LWPOLYLINE
  5
74
330
1F
100
AcDbEntity
  8
0
  6
Continuous
 62
     7
370
    15
100
AcDbPolyline
 90
       24
 70
   128
 43
0.0
 10
-2.4582152788
 20
13.063228932
 10
-2.469510727
 20
13.0779016034
 10
-2.527354632
 20
13.1805871022
 10
-2.5497200179
 20
13.2849209006
 10
-2.5362929239
 20
13.3894383808
 10
-2.4872618368
 20
13.4926723464
 10
-2.4033150457
 20
13.5931736188
 10
-2.2856309794
 20
13.6895313805
 10
-2.1358616644
 20
13.7803929797
 10
-1.9561095335
 20
13.8644829188
 10
-1.7488979126
 20
13.9406207593
 10
-1.5171355986
 20
14.0077376929
 10
-1.2640760264
 20
14.0648915449
 10
-0.9932715977
 20
14.1112800005
 10
-0.708523813
 20
14.1462518674
 10
-0.4138299071
 20
14.1693162174
 10
-0.1133267365
 20
14.1801492776
 10
0.1887672932
 20
14.1785989754
 10
0.4882114438
 20
14.1646870738
 10
0.7808021759
 20
14.1386088653
 10
1.062432157
 20
14.1007304309
 10
1.3291479195
 20
14.0515835006
 10
1.5772053587
 20
13.9918579898
 10
1.803122292
 20
13.9223923136
  0
LINE
  5
76
330
1F
100
AcDbEntity
  8
0
  6
Continuous
 62
     7
370
    15
100
AcDbLine
 10
13.865213329
 20
15.9949281846
 30
0.0
 11
11.5876422634
 21
17.0433973174
 31
0.0
  0
LINE
  5
77
330
1F
100
AcDbEntity
  8
0
  6
Continuous
 62
     7
370
    15
100
AcDbLine
 10
-11.5876422634
 20
17.0433973174
 30
0.0
 11
-13.865213329
 21
15.9949281846
 31
0.0
  0
LINE
  5
78
330
1F
100
AcDbEntity
  8
0
  6
Continuous
 62
     7
370
    15
100
AcDbLine
 10
17.35
 20
10.5070662235
 30
0.0
 11
17.35
 21
12.3833280491
 31
0.0
  0
LINE
  5
79
330
1F
100
AcDbEntity
  8
0
  6
Continuous
 62
     7
370
    15
100
AcDbLine
 10
-17.35
 20
12.3833280491
 30
0.0
 11
-17.35
 21
10.5070662235
 31
0.0
  0
LINE
  5
7A
330
1F
100
AcDbEntity
  8
0
  6
Continuous
 62
     7
370
    15
100
AcDbLine
 10
17.415
 20
5.1128134748
 30
0.0
 11
17.415
 21
10.5070662235
 31
0.0
  0
LINE
  5
7B
330
1F
100
AcDbEntity
  8
0
  6
Continuous
 62
     7
370
    15
100
AcDbLine
 10
-17.415
 20
10.5070662235
 30
0.0
 11
-17.415
 21
5.1128134748
 31
0.0
  0
LINE
  5
7C
330
1F
100
AcDbEntity
  8
0
  6
Continuous
 62
     7
370
    15
100
AcDbLine
 10
17.415
 20
1.4212683329
 30
0.0
 11
17.415
 21
4.6437480184
 31
0.0
  0
LINE
  5
7D
330
1F
100
AcDbEntity
  8
0
  6
Continuous
 62
     7
370
    15
100
AcDbLine
 10
-17.415
 20
4.6437480184
 30
0.0
 11
-17.415
 21
1.4212683329
 31
0.0
  0
LINE
  5
7E
330
1F
100
AcDbEntity
  8
0
  6
Continuous
 62
     7
370
    15
100
AcDbLine
 10
-16.1851984429
 20
-0.804689069
 30
0.0
 11
-14.7771837635
 21
-2.0323125289
 31
0.0
  0
LINE
  5
7F
330
1F
100
AcDbEntity
  8
0
  6
Continuous
 62
     7
370
    15
100
AcDbLine
 10
14.7771837635
 20
-2.0323125289
 30
0.0
 11
16.1851984429
 21
-0.804689069
 31
0.0
  0
LINE
  5
80
330
1F
100
AcDbEntity
  8
0
  6
Continuous
 62
     7
370
    15
100
AcDbLine
 10
3.2528391932
 20
13.7453700822
 30
0.0
 11
3.0437281022
 21
13.9276903981
 31
0.0
  0
LINE
  5
81
330
1F
100
AcDbEntity
  8
0
  6
Continuous
 62
     7
370
    15
100
AcDbLine
 10
-3.0437281022
 20
13.9276903981
 30
0.0
 11
-3.2528391932
 21
13.7453700822
 31
0.0
  0
LINE
  5
82
330
1F
100
AcDbEntity
  8
0
  6
Continuous
 62
     7
370
    15
100
AcDbLine
 10
-9.5881322138
 20
-0.3904405458
 30
0.0
 11
-9.5881322138
 21
-1.3941453397
 31
0.0
  0
LINE
  5
83
330
1F
100
AcDbEntity
  8
0
  6
Continuous
 62
     7
370
    15
100
AcDbLine
 10
-14.5378796821
 20
1.3235619529
 30
0.0
 11
-14.5378796821
 21
0.3198571589
 31
0.0
  0
LINE
  5
84
330
1F
100
AcDbEntity
  8
0
  6
Continuous
 62
     7
370
    15
100
AcDbLine
 10
-8.7518254409
 20
-0.1008435699
 30
0.0
 11
-9.5881322138
 21
-0.3904405458
 31
0.0
  0
LINE
  5
85
330
1F
100
AcDbEntity
  8
0
  6
Continuous
 62
     7
370
    15
100
AcDbLine
 10
-13.9799395324
 20
1.5167659127
 30
0.0
 11
-14.5378796821
 21
1.3235619529
 31
0.0
  0
LINE
  5
86
330
1F
100
AcDbEntity
  8
0
  6
Continuous
 62
     7
370
    15
100
AcDbLine
 10
-13.4420976308
 20
0.6993054411
 30
0.0
 11
-13.4420976308
 21
1.2787447592
 31
0.0
  0
LINE
  5
87
330
1F
100
AcDbEntity
  8
0
  6
Continuous
 62
     7
370
    15
100
AcDbLine
 10
-12.8709196584
 20
-0.5307525078
 30
0.0
 11
-13.9544856459
 21
-0.9059706016
 31
0.0
  0
LINE
  5
88
330
1F
100
AcDbEntity
  8
0
  6
Continuous
 62
     7
370
    15
100
AcDbLine
 10
-14.5378796821
 20
0.3198571589
 30
0.0
 11
-13.4420976308
 21
0.6993054411
 31
0.0
  0
LINE
  5
89
330
1F
100
AcDbEntity
  8
0
  6
Continuous
 62
     7
370
    15
100
AcDbLine
 10
-10.4189517399
 20
-2.1302581007
 30
0.0
 11
-9.7505085251
 21
-1.8987890514
 31
0.0
  0
ARC
  5
8A
330
1F
100
AcDbEntity
  8
0
  6
Continuous
 62
     7
370
    15
100
AcDbCircle
 10
-5.3627022482
 20
18.1884835953
 30
0.0
 40
20.9384078437708
100
AcDbArc
 50
245.7740538274
 51
256.0259717788
  0
ARC
  5
8B
330
1F
100
AcDbEntity
  8
0
  6
Continuous
 62
     7
370
    15
100
AcDbCircle
 10
-5.012698254
 20
16.4990375018
 30
0.0
 40
18.75540965727574
100
AcDbArc
 50
245.2295239308
 51
255.7154419916
  0
ARC
  5
8C
330
1F
100
AcDbEntity
  8
0
  6
Continuous
 62
     7
370
    15
100
AcDbCircle
 10
-7.6655212649
 20
4.6726486649
 30
0.0
 40
5.895790542682628
100
AcDbArc
 50
221.4367954647
 51
250.9678337734
  0
ENDSEC
  0
SECTION
  2
OBJECTS
  0
DICTIONARY
  5
C
330
0
100
AcDbDictionary
281
     1
  3
ACAD_GROUP
350
D
  3
ACAD_LAYOUT
350
1A
  3
ACAD_MLINESTYLE
350
17
  3
ACAD_PLOTSETTINGS
350
19
  3
ACAD_PLOTSTYLENAME
350
E
  0
DICTIONARY
  5
D
102
{ACAD_REACTORS
330
C
102
}
330
C
100
AcDbDictionary
281
     1
  0
DICTIONARY
  5
1A
102
{ACAD_REACTORS
330
C
102
}
330
C
100
AcDbDictionary
281
     1
  3
Layout1
350
1E
  3
Layout2
350
26
  3
Model
350
22
  0
DICTIONARY
  5
17
102
{ACAD_REACTORS
330
C
102
}
330
C
100
AcDbDictionary
281
     1
  3
Standard
350
18
  0
DICTIONARY
  5
19
102
{ACAD_REACTORS
330
C
102
}
330
C
100
AcDbDictionary
281
     1
  0
ACDBDICTIONARYWDFLT
  5
E
102
{ACAD_REACTORS
330
C
102
}
330
C
100
AcDbDictionary
281
     1
  3
Normal
350
F
100
AcDbDictionaryWithDefault
340
F
  0
LAYOUT
  5
1E
102
{ACAD_REACTORS
330
1A
102
}
330
1A
100
AcDbPlotSettings
  1

  2
none_device
  4

  6

 40
0.0
 41
0.0
 42
0.0
 43
0.0
 44
0.0
 45
0.0
 46
0.0
 47
0.0
 48
0.0
 49
0.0
140
0.0
141
0.0
142
1.0
143
1.0
 70
   688
 72
     0
 73
     0
 74
     5
  7

 75
    16
147
1.0
148
0.0
149
0.0
100
AcDbLayout
  1
Layout1
 70
     1
 71
     1
 10
0.0
 20
0.0
 11
420.0
 21
297.0
 12
0.0
 22
0.0
 32
0.0
 14
1.0000000000E+20
 24
1.0000000000E+20
 34
1.0000000000E+20
 15
-1.0000000000E+20
 25
-1.0000000000E+20
 35
-1.0000000000E+20
146
0.0
 13
0.0
 23
0.0
 33
0.0
 16
1.0
 26
0.0
 36
0.0
 17
0.0
 27
1.0
 37
0.0
 76
     0
330
1B
  0
LAYOUT
  5
26
102
{ACAD_REACTORS
330
1A
102
}
330
1A
100
AcDbPlotSettings
  1

  2
none_device
  4

  6

 40
0.0
 41
0.0
 42
0.0
 43
0.0
 44
0.0
 45
0.0
 46
0.0
 47
0.0
 48
0.0
 49
0.0
140
0.0
141
0.0
142
1.0
143
1.0
 70
   688
 72
     0
 73
     0
 74
     5
  7

 75
    16
147
1.0
148
0.0
149
0.0
100
AcDbLayout
  1
Layout2
 70
     1
 71
     2
 10
0.0
 20
0.0
 11
0.0
 21
0.0
 12
0.0
 22
0.0
 32
0.0
 14
0.0
 24
0.0
 34
0.0
 15
0.0
 25
0.0
 35
0.0
146
0.0
 13
0.0
 23
0.0
 33
0.0
 16
1.0
 26
0.0
 36
0.0
 17
0.0
 27
1.0
 37
0.0
 76
     0
330
23
  0
LAYOUT
  5
22
102
{ACAD_REACTORS
330
1A
102
}
330
1A
100
AcDbPlotSettings
  1

  2
none_device
  4
ANSI_A_(11.00_x_8.50_Inches)
  6

 40
6.35
 41
19.05
 42
6.35000508
 43
19.05000254
 44
279.4
 45
215.9
 46
133.34999746
 47
35.1343043806
 48
0.0
 49
0.0
140
0.0
141
0.0
142
0.3126614987
143
1.0
 70
  1696
 72
     0
 73
     0
 74
     0
  7

 75
     0
147
0.0179189148
148
0.0
149
0.0
100
AcDbLayout
  1
Model
 70
     1
 71
     0
 10
0.0
 20
0.0
 11
420.0
 21
297.0
 12
0.0
 22
0.0
 32
0.0
 14
-17.415
 24
-5.5057686737
 34
0.0
 15
17.415
 25
19.0460326896
 35
0.0
146
0.0
 13
0.0
 23
0.0
 33
0.0
 16
1.0
 26
0.0
 36
0.0
 17
0.0
 27
1.0
 37
0.0
 76
     0
330
1F
331
29
  0
MLINESTYLE
  5
18
102
{ACAD_REACTORS
330
17
102
}
330
17
100
AcDbMlineStyle
  2
Standard
 70
     0
  3

 62
   256
 51
90.0
 52
90.0
 71
     2
 49
0.5
 62
   256
  6
BYLAYER
 49
-0.5
 62
   256
  6
BYLAYER
  0
ACDBPLACEHOLDER
  5
F
102
{ACAD_REACTORS
330
E
102
}
330
E
  0
ENDSEC
  0
EOF
